<?xml version="1.0" encoding="UTF-8" standalone="no"?>
<!-- Created with Inkscape (http://www.inkscape.org/) -->
<svg xmlns:dc="http://purl.org/dc/elements/1.1/" xmlns:cc="http://creativecommons.org/ns#" xmlns:rdf="http://www.w3.org/1999/02/22-rdf-syntax-ns#" xmlns:svg="http://www.w3.org/2000/svg" xmlns="http://www.w3.org/2000/svg" xmlns:sodipodi="http://sodipodi.sourceforge.net/DTD/sodipodi-0.dtd" xmlns:inkscape="http://www.inkscape.org/namespaces/inkscape" width="306.2048" height="398.63522" id="svg2" version="1.1" inkscape:version="0.48.1 r9760" sodipodi:docname="bearRedScarf.svg" style="display:inline">
  <title id="title4001">teddy bear with red scarf</title>
  <defs id="defs4"/>
  <sodipodi:namedview id="base" pagecolor="#ffffff" bordercolor="#666666" borderopacity="1.0" inkscape:pageopacity="0.0" inkscape:pageshadow="2" inkscape:zoom="1.4" inkscape:cx="-68.957274" inkscape:cy="264.72505" inkscape:document-units="px" inkscape:current-layer="layer2" showgrid="false" inkscape:object-paths="false" inkscape:window-width="1920" inkscape:window-height="1152" inkscape:window-x="0" inkscape:window-y="0" inkscape:window-maximized="1" inkscape:object-nodes="false" fit-margin-top="0" fit-margin-left="0" fit-margin-right="0" fit-margin-bottom="0"/>
  <g inkscape:groupmode="layer" id="layer2" inkscape:label="Réteg" transform="translate(-51.705088,-20.180929)">
    <path sodipodi:type="inkscape:offset" inkscape:radius="3.8459721" inkscape:original="M 243.46875 24.03125 C 233.49031 26.855327 226.72367 32.492064 220.8125 38.875 C 212.9127 37.807191 204.63315 38.651044 196.0625 40.9375 L 201.78125 33.0625 C 189.51399 33.648805 180.08092 33.446866 171.84375 40.75 L 174.625 33.0625 C 168.47487 33.654065 160.35279 36.476204 151.96875 40.34375 C 150.14339 38.708361 148.18433 37.361349 146.21875 36.40625 L 146.21875 39.4375 C 138.38179 35.009113 129.25747 29.045182 116.1875 29.0625 L 116.6875 31.59375 C 99.885261 36.76476 82.76918 53.821398 83.84375 61.65625 L 86.375 62.90625 C 83.07618 78.866154 92.10256 91.573665 99 99.53125 L 101.03125 96 C 101.12865 96.202906 101.23959 96.397132 101.34375 96.59375 C 99.660358 104.05975 98.192775 111.50275 96.875 118.96875 C 91.04635 118.99695 85.94993 121.69328 84.34375 128.0625 C 84.2968 128.42151 84.27792 128.75944 84.28125 129.09375 C 84.281426 129.12495 84.28067 129.1565 84.28125 129.1875 C 84.2961 129.81966 84.405738 130.40958 84.5625 130.96875 C 84.727361 131.56711 84.949665 132.11755 85.21875 132.65625 C 85.61661 133.45117 86.100115 134.17444 86.5625 134.90625 C 87.182902 135.88975 87.763387 136.83847 88.09375 137.875 C 88.17595 138.13217 88.235001 138.3884 88.28125 138.65625 C 88.33048 138.93342 88.34066 139.20824 88.34375 139.5 C 88.34685 139.78148 88.32846 140.04569 88.28125 140.34375 C 88.23427 140.65174 88.170936 140.95238 88.0625 141.28125 C 88.00201 141.4647 87.921063 141.64973 87.84375 141.8125 C 87.76648 141.97523 87.685585 142.10523 87.59375 142.25 C 87.58905 142.258 87.59855 142.27375 87.59375 142.28125 C 87.50603 142.41768 87.411254 142.53342 87.3125 142.65625 C 87.3071 142.66325 87.3179 142.6808 87.3125 142.6875 C 87.00321 143.06849 86.627682 143.39054 86.25 143.6875 C 85.994041 143.88883 85.734011 144.09106 85.46875 144.28125 C 84.938895 144.66095 84.397649 145.03253 83.9375 145.5 C 83.707175 145.73399 83.498587 145.99232 83.3125 146.28125 C 83.21953 146.42564 83.141099 146.55646 83.0625 146.71875 C 82.97894 146.88846 82.908969 147.05756 82.84375 147.25 C 82.79231 147.40179 82.76482 147.53795 82.75 147.6875 C 82.6978 148.14567 82.79366 148.58861 83 149.03125 C 83.134721 149.32123 83.333081 149.5875 83.53125 149.875 C 84.52107 151.31349 86.066758 152.74411 85.875 154.34375 C 85.85621 154.50046 85.82508 154.63496 85.78125 154.78125 C 85.77855 154.79025 85.78405 154.8032 85.78125 154.8125 C 85.285685 156.40566 83.387966 157.41564 82.21875 158.75 C 82.21385 158.756 82.22365 158.77575 82.21875 158.78125 C 82.117663 158.89751 81.994988 159.00327 81.90625 159.125 C 81.90165 159.131 81.91085 159.14995 81.90625 159.15625 C 81.726458 159.40588 81.578621 159.65722 81.46875 159.9375 C 81.46375 159.9498 81.44235 159.95645 81.4375 159.96875 C 81.38711 160.10208 81.34311 160.2643 81.3125 160.40625 C 81.23069 160.78558 81.26241 161.25407 81.34375 161.75 C 81.581839 163.24185 82.34375 164.9375 82.34375 164.9375 C 82.706773 165.17425 83.110345 165.42402 83.5625 165.6875 C 83.64074 165.733 83.700331 165.7662 83.78125 165.8125 C 84.732697 166.35948 85.955135 167.00562 87.25 167.65625 C 87.458158 167.76052 87.659137 167.86218 87.875 167.96875 C 88.220746 168.13978 88.508545 168.29142 88.875 168.46875 C 80.669332 183.45762 73.127753 198.62279 71.3125 215.4375 L 74.25 214.9375 C 67.83893 227.65736 63.77418 241.79801 62.125 257.375 L 65.65625 255.84375 C 65.65625 255.84375 55.15475 307.15017 55.5625 333.125 C 55.67763 340.45882 57.3125 354.84375 57.3125 354.84375 L 60.125 352.3125 C 60.125 352.3125 79.29569 386.94143 95.46875 396.78125 C 123.02753 413.54823 147.15107 415.06295 183.34375 414.96875 C 193.94497 414.94115 214.15196 407.8953 217.6875 405.875 L 218.1875 402.34375 L 226.28125 392.71875 L 242.9375 390.71875 L 264.65625 392.71875 C 284.9612 394.60758 310.58811 389.0602 328.3125 378.59375 L 322.25 379.09375 C 319.9279 373.56642 353.15091 374.43437 354.0625 327.0625 C 354.30406 314.50977 339.21152 305.8999 331.84375 303.84375 L 333.875 301.3125 C 327.52419 297.42068 323.60377 293.38644 317.1875 292.21875 C 315.6794 281.44379 314.5112 276.24371 311.65625 265.46875 C 323.04508 261.83394 328.52606 257.64922 335.875 247.28125 L 333.34375 245.25 C 340.79258 229.65882 338.36143 205.56202 321.75 196.25 L 321.75 192.71875 C 316.00429 188.94144 306.7608 186.89477 292.9375 187.15625 C 292.916 187.09365 292.8965 187.03134 292.875 186.96875 C 300.75919 182.55415 299.53125 177.0625 299.53125 177.0625 C 296.90556 173.48201 292.80915 168.32611 292.84375 164.5 C 292.85905 162.80626 293.66941 162.39019 295 160.4375 C 295.44444 159.78721 295.94925 158.97168 296.5 157.875 C 296.693 157.44277 296.8481 156.97214 297 156.46875 C 297.0307 156.36905 297.06415 156.25861 297.09375 156.15625 C 297.18005 155.84474 297.27375 155.51835 297.34375 155.1875 C 297.37005 155.07837 297.4122 154.98587 297.4375 154.875 C 297.4315 154.878 297.41255 154.90315 297.40625 154.90625 C 298.23833 150.63733 297.68022 145.05565 294.96875 142.21875 C 289.88677 136.90168 282.6544 135.51445 276.65625 135.53125 C 271.6243 120.40698 265.76031 105.33776 257.5625 90.59375 C 263.13545 88.02182 267.93382 83.745402 270.96875 76.3125 L 272 78.0625 C 274.70251 73.186209 278.29872 63.644815 272.25 53.3125 L 274.78125 53.0625 C 272.31548 46.107191 266.49288 35.104815 253.8125 30.84375 C 253.8125 30.84375 254.57598 29.59375 256.34375 29.59375 C 253.06193 27.956877 247.88642 23.964795 241.9375 28.0625 L 243.46875 24.03125 z " style="fill:#000000;fill-opacity:1;stroke:none" id="path3993" d="m 243.21875,20.1875 a 3.8463567,3.8463567 0 0 0 -0.8125,0.15625 c -10.08163,2.853283 -17.16901,8.455077 -23.0625,14.5625 -4.73161,-0.462894 -9.53435,-0.29762 -14.40625,0.375 a 3.8463567,3.8463567 0 0 0 -3.34375,-6.0625 c -8.37134,0.400102 -16.08456,0.489367 -23.15625,3.1875 a 3.8463567,3.8463567 0 0 0 -4.1875,-3.1875 c -6.3629,0.612031 -13.88449,3.279392 -21.65625,6.71875 -1.50821,-1.157013 -3.05271,-2.205636 -4.6875,-3 a 3.8463567,3.8463567 0 0 0 -4.25,0.625 c -7.0315,-3.976895 -15.78351,-8.359233 -27.46875,-8.34375 a 3.8463567,3.8463567 0 0 0 -3.84375,3.9375 c -8.00247,3.086897 -15.558297,8.172059 -21.40625,13.6875 -3.31538,3.126869 -6.102576,6.354321 -8.0625,9.53125 -1.959924,3.176929 -3.324682,6.305951 -2.84375,9.8125 a 3.8463567,3.8463567 0 0 0 2.125,2.90625 L 82.25,65.125 c -2.009212,16.275565 7.120404,29.180767 13.84375,36.9375 a 3.8463567,3.8463567 0 0 0 0.21875,0.1875 c -0.928827,4.42667 -1.852482,8.85785 -2.65625,13.28125 -2.383045,0.37727 -4.729921,1.03424 -6.78125,2.40625 -2.969059,1.98582 -5.24254,5.19247 -6.25,9.1875 a 3.8463567,3.8463567 0 0 0 -0.09375,0.4375 c -0.07,0.53525 -0.09878,1.0576 -0.09375,1.5625 -2.57e-4,-0.0455 -0.0027,-0.0173 0,0.125 a 3.8463567,3.8463567 0 0 0 0,0.0312 c 0.02397,1.02031 0.185517,1.9314 0.40625,2.71875 0.239597,0.86961 0.578804,1.6569 0.9375,2.375 0.538131,1.07518 1.10433,1.91807 1.53125,2.59375 0.602515,0.95514 0.984278,1.62098 1.125,2.0625 0.01927,0.0603 0.03967,0.14904 0.0625,0.28125 a 3.8463567,3.8463567 0 0 0 0,0.0312 c -0.01136,-0.0639 -0.0024,-0.0404 0,0.1875 9.64e-4,0.0875 -0.01484,0.11512 -0.03125,0.21875 -0.02554,0.16745 -0.03288,0.22267 -0.0625,0.3125 0.01821,-0.0552 0.0078,0.0115 -0.03125,0.0937 0.02843,-0.0599 0.04996,-0.0968 -0.03125,0.0312 0.02347,-0.0365 -0.0032,0.0361 0,0.0312 0.0048,-0.007 0.03621,-0.0527 -0.03125,0.0312 -0.01761,0.0217 -0.148147,0.17874 -0.4375,0.40625 -0.244761,0.19252 -0.472914,0.36855 -0.65625,0.5 -0.487539,0.34938 -1.228173,0.8404 -2.03125,1.65625 -0.408725,0.41523 -0.76431,0.86349 -1.09375,1.375 -0.132396,0.20562 -0.337322,0.50785 -0.5,0.84375 l 0.03125,0 c -0.154939,0.31468 -0.32371,0.63299 -0.4375,0.96875 -0.135619,0.40019 -0.20829,0.87318 -0.25,1.25 -0.0024,0.0214 0.0022,0.0412 0,0.0625 -0.12658,1.23863 0.14102,2.43959 0.5625,3.34375 0.363467,0.78234 0.727696,1.19254 0.875,1.40625 0.616638,0.89615 1.102124,1.45231 1.40625,1.875 -0.0745,0.0829 0.01474,-0.0329 -0.125,0.0937 -0.512754,0.4646 -1.372876,1.12032 -2.3125,2.1875 -0.0067,0.008 -0.0245,-0.008 -0.03125,0 a 3.8463567,3.8463567 0 0 0 0,0.0312 3.8463567,3.8463567 0 0 0 -0.0625,0.0625 c -1.3e-5,2e-5 -0.03049,0.0296 -0.03125,0.0312 0.02565,-0.0466 -0.05161,0.0879 -0.34375,0.46875 l -0.03125,-0.0312 c -2.6e-5,3e-5 -0.02324,0.0796 -0.03125,0.0937 a 3.8463567,3.8463567 0 0 0 -0.03125,0.0312 c -0.0067,0.0123 -0.0648,0.10304 -0.09375,0.15625 -0.154058,0.27163 -0.34362,0.65592 -0.34375,0.65625 -0.0041,0.008 -0.03126,0.0625 -0.03125,0.0625 -0.135665,0.24437 -0.292553,0.43479 -0.40625,0.71875 -0.0059,0.0146 -0.02548,0.0165 -0.03125,0.0312 -0.0049,0.0122 0.0049,0.0188 0,0.0312 a 3.8463567,3.8463567 0 0 0 -0.03125,0.0312 c -0.153355,0.40577 -0.217826,0.70588 -0.28125,1 -0.259633,1.20384 -0.117213,2.03531 0,2.75 l -0.03125,0 c 0.367856,2.30496 1.3125,4.15625 1.3125,4.15625 a 3.8463567,3.8463567 0 0 0 1.40625,1.65625 c 0.418743,0.27309 0.869445,0.54915 1.375,0.84375 0.109037,0.0634 0.187658,0.12058 0.25,0.15625 0.511208,0.29389 1.183997,0.61998 1.78125,0.9375 -7.540447,14.01689 -14.390601,28.58228 -16.15625,44.9375 a 3.8463567,3.8463567 0 0 0 1.125,3.15625 c -5.294224,11.85872 -8.826722,24.74764 -10.3125,38.78125 a 3.8463567,3.8463567 0 0 0 2.5,4 c -1.741222,8.65688 -9.475573,47.89554 -9.09375,72.21875 0.122861,7.82626 1.78125,22.09375 1.78125,22.09375 a 3.8463567,3.8463567 0 0 0 5.625,2.9375 c 2.006541,3.42379 4.979894,8.34474 9.4375,14.8125 6.931428,10.05715 15.684688,21.42078 24.90625,27.03125 28.32231,17.23152 53.57057,18.84449 89.875,18.75 6.14628,-0.016 13.91819,-1.90123 20.90625,-3.96875 3.49403,-1.03376 6.76012,-2.11581 9.40625,-3.09375 2.64613,-0.97794 4.51951,-1.72097 5.9375,-2.53125 a 3.8463567,3.8463567 0 0 0 1.90625,-2.8125 l 0.34375,-2.4375 6.40625,-7.625 14.65625,-1.75 21.40625,1.96875 c 21.2936,1.9808 47.35907,-3.66702 65.96875,-14.65625 a 3.8463567,3.8463567 0 0 0 1.375,-5.1875 c 2.31716,-1.24565 4.87255,-2.74757 7.65625,-4.9375 8.88164,-6.98717 18.12065,-20.07127 18.59375,-44.65625 0.15075,-7.8338 -4.41579,-14.11416 -9.59375,-18.53125 -3.51833,-3.00133 -7.21575,-5.00721 -10.6875,-6.53125 a 3.8463567,3.8463567 0 0 0 -1.75,-4.03125 c -5.16863,-3.16737 -9.27599,-6.9096 -15.28125,-8.78125 -1.17042,-7.87759 -2.44177,-13.81762 -4.40625,-21.4375 9.71434,-3.68392 16.02029,-8.72997 22.8125,-18.3125 a 3.8463567,3.8463567 0 0 0 -0.71875,-5.21875 L 337.90625,244 c 3.14742,-8.0681 4.14751,-17.4313 2.4375,-26.34375 -1.77485,-9.25039 -6.52416,-18.03138 -14.75,-23.5 l 0,-1.4375 A 3.8463567,3.8463567 0 0 0 323.875,189.5 c -5.24143,-3.44579 -12.44925,-5.40034 -21.96875,-6 0.351,-0.63357 0.66322,-1.27426 0.875,-1.875 0.99014,-2.80863 0.5,-5.40625 0.5,-5.40625 a 3.8463567,3.8463567 0 0 0 -0.65625,-1.4375 c -1.35628,-1.84947 -2.96251,-3.94489 -4.15625,-5.90625 -1.17233,-1.92619 -1.76473,-3.71925 -1.78125,-4.28125 0.15546,-0.2181 0.73607,-0.87891 1.5,-2 0.52415,-0.76692 1.11944,-1.74439 1.75,-3 A 3.8463567,3.8463567 0 0 0 300,159.4375 c 0.304,-0.68083 0.51795,-1.28188 0.6875,-1.84375 0.0346,-0.11221 0.0544,-0.23903 0.0937,-0.375 a 3.8463567,3.8463567 0 0 0 0.0312,-0.0312 c 0.0714,-0.25777 0.15171,-0.65645 0.25,-1.09375 l 0.0312,0 c -0.077,0.31954 -0.0344,0.18681 0.0937,-0.375 a 3.8463567,3.8463567 0 0 0 0,-0.0625 3.8463567,3.8463567 0 0 0 0.0937,-0.6875 3.8463567,3.8463567 0 0 0 0,-0.0937 c 0.85149,-5.05825 0.53542,-11.05771 -3.53125,-15.3125 -5.3056,-5.55104 -12.2644,-7.33635 -18.34375,-7.71875 -4.5078,-13.29476 -9.73764,-26.61067 -16.71875,-39.75 3.75432,-2.375793 7.07956,-5.734198 9.6875,-10.21875 a 3.8463567,3.8463567 0 0 0 3,-1.9375 c 2.661,-4.801397 6.10744,-14.108285 2.25,-24.28125 a 3.8463567,3.8463567 0 0 0 0.78125,-3.875 c -2.32952,-6.570992 -7.52097,-16.705234 -18.21875,-22.375 a 3.8463567,3.8463567 0 0 0 -2.125,-3.25 c -1.24602,-0.621476 -3.67005,-2.283495 -6.875,-3.1875 C 249.94212,22.617471 248.49481,22.509573 247,22.5625 a 3.8463567,3.8463567 0 0 0 -3.78125,-2.375 z M 79.15625,156.53125 c -0.03619,0.0778 -0.114446,0.18653 -0.1875,0.34375 l -0.03125,-0.0312 c 0.0968,-0.1502 0.129904,-0.1746 0.21875,-0.3125 z m -0.25,0.40625 0.03125,0.0312 c -0.0056,0.0121 0.0057,0.019 0,0.0312 -0.0084,0.0181 -0.0227,0.0128 -0.03125,0.0312 -0.226959,0.48852 -0.468628,0.99935 -0.46875,1 -1.05e-4,5.4e-4 0.281449,-0.81295 0.28125,-0.8125 -2.3e-5,5e-5 0.04669,-0.10049 0.0625,-0.125 0.0049,-0.008 0.02511,-0.0217 0.03125,-0.0312 0.02221,-0.0344 0.05898,-0.0711 0.09375,-0.125 z"/>
    <path style="fill:#ffffff;fill-opacity:1;stroke:#000000" d="m 216.93896,43.219789 c 6.89962,-8.094447 14.31323,-15.739153 26.51651,-19.192899 l -1.51523,4.040611 c 5.94892,-4.097705 11.11285,-0.121645 14.39467,1.515228 -1.76777,0 -2.52538,1.262691 -2.52538,1.262691 12.68038,4.261065 18.49489,15.268047 20.96066,22.223356 l -2.52538,0.252538 c 6.04872,10.332315 2.44997,19.872446 -0.25254,24.748737 l -1.01015,-1.767766 c -4.08682,10.009111 -11.39264,14.337824 -19.44543,16.414979 z" id="path3148" inkscape:connector-curvature="0" sodipodi:nodetypes="ccccccccccc"/>
    <path style="fill:#e3dedb;fill-opacity:1;stroke:none" d="m 230.06224,56.351772 c 4.37366,-5.732366 11.46373,-11.648528 17.42513,-12.121831 l -1.51522,3.535534 c 5.84043,-2.6695 10.21576,-0.282546 15.9099,4.545687 l -1.26269,2.525382 c 6.85619,4.401527 2.51713,10.710962 1.01014,15.404826 -4.20082,13.08446 -11.19585,9.428091 -16.92005,15.657365 z" id="path3995" inkscape:connector-curvature="0" sodipodi:nodetypes="cccccscc"/>
    <path style="fill:#ffffff;fill-opacity:1;stroke:#000000" d="m 122.64115,57.4773 c 14.35137,-10.482489 38.15127,-23.070259 51.98441,-24.400833 l -2.77048,7.683828 c 8.23717,-7.303134 17.64608,-7.097523 29.91334,-7.683828 l -5.71429,7.857143 c 11.8212,-3.153631 23.096,-3.57522 33.57143,0 l -7.14286,5.714286 c 11.55628,5.037886 21.85151,13.228387 30.71429,25 l -6.71107,1.371393 c 26.24586,36.737691 33.36348,76.095311 46.46702,114.147241 13.8233,-0.26148 23.04364,1.77853 28.78935,5.55584 l 0,3.53553 c 16.61143,9.31202 19.06558,33.40122 11.61675,48.9924 l 2.52539,2.0203 c -7.34894,10.36797 -12.85484,14.54794 -24.24367,18.18275 2.85495,10.77496 4.04774,15.99408 5.55584,26.76904 6.41627,1.16769 10.31671,5.19955 16.66752,9.09137 l -2.0203,2.52539 c 7.36777,2.05615 22.46491,10.68077 22.22335,23.2335 -0.91159,47.37187 -34.1419,46.49553 -31.8198,52.02286 l 6.06091,-0.50508 c -17.72439,10.46645 -43.33466,16.03097 -63.63961,14.14214 l -21.71828,-2.0203 -16.66752,2.0203 -8.08122,9.59645 -0.50507,3.53553 c -3.53554,2.0203 -23.74397,9.0638 -34.34519,9.09137 -36.19268,0.0942 -60.32449,-1.41576 -87.883269,-18.18274 -16.17306,-9.83982 -35.35534,-44.44671 -35.35534,-44.44671 l -2.79586,2.52538 c 0,0 -1.6347,-14.38446 -1.74983,-21.71828 -0.40775,-25.97483 10.10153,-77.27667 10.10153,-77.27667 l -3.53554,1.51523 c 1.64918,-15.57699 5.71076,-29.70655 12.12183,-42.42641 l -2.93328,0.50508 c 1.85538,-17.18641 9.67001,-32.67018 18.08557,-47.98225 4.78053,-32.15652 8.74099,-64.31304 18.687829,-96.469566 z" id="path3117" inkscape:connector-curvature="0" sodipodi:nodetypes="ccccccccccccccccccsccsccccssccsccccccc"/>
    <path sodipodi:type="inkscape:offset" inkscape:radius="-3.0905745" inkscape:original="M 274.03125 49.03125 L 248 62.90625 C 248 62.90625 266.0023 87.047153 271.71875 100.8125 C 283.71492 129.69957 292.9375 192.21875 292.9375 192.21875 C 268.52012 202.65561 258.15989 206.20871 246.96875 220 C 233.07612 237.12045 234.07136 260.66452 243.9375 271.5 C 258.92994 284.15806 273.91381 286.76809 288.90625 284.65625 C 286.42154 303.72088 277.03766 317.11237 263.15625 323.53125 C 263.15625 323.53125 225.7382 331.08576 212.15625 341.71875 C 205.02858 347.29883 194.64539 356.36022 192.4375 378.59375 C 191.04886 392.57734 201.21943 405.73478 215.9375 413.59375 C 219.74161 414.40626 223.3783 414.9612 226.28125 414.96875 C 262.47393 415.06295 286.59747 413.54823 314.15625 396.78125 C 330.32931 386.94143 349.5 352.3125 349.5 352.3125 L 352.3125 354.84375 C 352.3125 354.84375 353.94737 340.45882 354.0625 333.125 C 354.47025 307.15017 343.96875 255.84375 343.96875 255.84375 L 347.5 257.375 C 345.85082 241.79801 341.78607 227.65736 335.375 214.9375 L 338.3125 215.4375 C 336.45712 198.25109 328.63431 182.78082 320.21875 167.46875 C 315.43822 135.31223 311.47809 103.15653 301.53125 71 L 287 57.46875 C 283.2247 54.711208 278.76081 51.836915 274.03125 49.03125 z M 117.46875 191.65625 C 102.69297 193.11657 99.148901 196.01542 90.90625 200.8125 C 83.196026 205.41247 76.708092 217.80441 72.5 231.125 C 72.976986 236.14635 74.258391 241.01594 76.28125 245.25 L 73.75 247.28125 C 81.098933 257.64922 86.611172 261.83394 98 265.46875 C 99.750546 244.40947 107.15927 213.72568 117.46875 191.65625 z M 90.84375 307 C 76.816669 309.4381 72.791489 317.35115 65.71875 324.5 C 60.811099 329.46046 58.207738 334.41454 56.65625 339.375 C 62.511142 374.31845 89.474936 374.09522 87.375 379.09375 L 81.3125 378.59375 C 99.036887 389.0602 124.6638 394.60758 144.96875 392.71875 L 166.6875 390.71875 C 166.6875 390.71875 130.39087 377.12216 117.15625 363.78125 C 98.370515 344.84464 97.040234 314.22993 90.84375 307 z " style="fill:#e3dedb;fill-opacity:1;stroke:none" id="path3956" d="M 273.875,52.625 252.53125,64 c 3.1137,4.197063 16.57275,22.480799 22.03125,35.625 C 286.94924,129.45258 296,191.78125 296,191.78125 a 3.0908836,3.0908836 0 0 1 -1.84375,3.28125 c -12.2374,5.2307 -20.87662,8.72867 -27.65625,12.5 -6.77963,3.77133 -11.74163,7.74086 -17.125,14.375 -12.91359,15.91394 -11.58135,37.97242 -3.25,47.3125 14.31253,12.00715 28.0408,14.35847 42.34375,12.34375 a 3.0908836,3.0908836 0 0 1 3.5,3.46875 c -2.58962,19.86956 -12.61388,34.39778 -27.5,41.28125 a 3.0908836,3.0908836 0 0 1 -0.6875,0.21875 c 0,0 -9.24175,1.8536 -20.15625,5.03125 -10.9145,3.17765 -23.57651,7.87621 -29.5625,12.5625 -6.99605,5.47704 -16.44061,13.38245 -18.5625,34.75 -1.21005,12.18518 7.74642,24.23651 21.46875,31.71875 3.53268,0.73685 6.89449,1.24371 9.3125,1.25 36.10288,0.094 59.33603,-1.32507 86.28125,-17.71875 7.17443,-4.36498 16.06106,-15.31185 22.78125,-25.0625 6.72019,-9.75065 11.4375,-18.28125 11.4375,-18.28125 a 3.0908836,3.0908836 0 0 1 3,-1.5625 c 0.48786,-4.77767 1.11378,-11.4912 1.1875,-16.1875 0.39368,-25.07827 -10.03125,-76.59375 -10.03125,-76.59375 a 3.0908836,3.0908836 0 0 1 2.78125,-3.71875 c -1.89691,-13.26677 -5.55008,-25.40735 -11.09375,-36.40625 a 3.0908836,3.0908836 0 0 1 2.03125,-4.40625 C 332.20903,196.9559 325.22409,183.0227 317.5,168.96875 a 3.0908836,3.0908836 0 0 1 -0.34375,-1.03125 c -4.75069,-31.95582 -8.69941,-63.70525 -18.375,-95.28125 L 285.1875,59.96875 c -0.0104,-0.0076 -0.0208,-0.02362 -0.0312,-0.03125 -3.24951,-2.371592 -7.20663,-4.850377 -11.28125,-7.3125 z M 112.4375,195.5 c -9.53583,1.49826 -12.840775,3.8368 -19.9375,7.96875 -0.0089,0.005 -0.02234,-0.005 -0.03125,0 -6.159031,3.69084 -12.702662,15.25816 -16.8125,27.96875 0.48868,4.47355 1.64154,8.77502 3.40625,12.46875 a 3.0908836,3.0908836 0 0 1 -0.84375,3.75 l -0.15625,0.125 c 5.33203,7.07188 9.826607,10.60234 17.375,13.4375 2.106365,-19.59772 8.2419,-45.13061 17,-65.71875 z m -23.125,115.03125 c -5.220664,1.2232 -8.664452,3.2275 -11.59375,5.78125 -3.317647,2.89232 -6.081316,6.60366 -9.8125,10.375 -4.349325,4.39613 -6.584416,8.62173 -8.03125,12.96875 2.906106,16.13737 10.26821,23.7263 16.875,28.25 3.359374,2.30018 6.497118,3.75653 8.96875,5.0625 1.235816,0.65298 2.315616,1.2042 3.34375,2.21875 0.514067,0.50728 1.060286,1.20146 1.34375,2.15625 0.234045,0.78833 0.15705,1.65833 -0.0625,2.4375 16.4063,7.54047 37.51192,11.44075 54.34375,9.875 l 9.375,-0.875 c -2.76218,-1.19053 -5.22869,-2.1738 -8.5,-3.71875 -10.85433,-5.12619 -23.35127,-11.7931 -30.59375,-19.09375 -9.95365,-10.03359 -15.112219,-22.92517 -18.625,-34.03125 -1.75639,-5.55304 -3.116799,-10.70044 -4.375,-14.78125 -0.931907,-3.02252 -1.85468,-5.13593 -2.65625,-6.625 z" transform="matrix(-1,0,0,1,409.62556,0)"/>
    <path style="fill:#c8beb7;fill-opacity:1;stroke:none" d="m 297.49863,246.26045 c 0,0 1.01015,13.13198 -1.51523,16.66752 -2.52538,3.53553 -28.28427,15.65736 -32.32488,15.15229 -4.04061,-0.50508 -37.37565,-55.55839 -44.44671,-56.56855 -7.07107,-1.01015 -37.88072,-9.3439 -37.88072,-9.3439 -5.69005,-8.74219 -13.90943,-11.92222 -25.13241,-13.32695 0,0 -43.93847,-15.94975 -63.439769,-24.633 -5.61374,-2.4996 -1.74982,-9.05547 -1.74982,-9.05547 l 167.598659,42.72226 z" id="path3958" inkscape:connector-curvature="0" sodipodi:nodetypes="csssccsccc"/>
    <path style="fill:#aa0000;fill-opacity:1;stroke:none" d="m 273.76004,190.70206 c 0,0 26.01181,31.19398 32.32488,52.02286 2.5571,8.43671 -38.07849,31.8683 -40.91117,27.77919 -15.33253,-22.13329 -20.63195,-46.39258 -57.07362,-62.12438 z" id="path3140" inkscape:connector-curvature="0" sodipodi:nodetypes="csscc"/>
    <path style="fill:#c8beb7;fill-opacity:1;stroke:none" d="m 250.52653,128.57768 c 6.74631,6.35163 14.30748,16.38724 11.61676,25.25381 -2.52388,8.31677 -13.62314,12.38217 -22.22336,13.63706 -10.34497,1.50948 -24.21471,0.41646 -30.30457,-8.08122 -2.94865,-4.11449 -1.17839,-10.58788 1.01015,-15.15229 3.65765,-7.62836 11.08548,-13.46117 18.68782,-17.17259 3.6811,-1.79709 8.04714,-2.44095 12.12183,-2.0203 3.23436,0.3339 6.72397,1.30663 9.09137,3.53553 z" id="path3920" inkscape:connector-curvature="0" sodipodi:nodetypes="ssssssss"/>
    <path style="fill:none;stroke:#000000" d="m 155.57219,198.27821 c 9.6118,3.0914 19.45552,4.55928 27.7792,16.66751 l -5.55584,1.01015 c 13.64651,10.10153 14.69848,20.70813 13.63706,30.30458 l -4.04061,0.50508 c 2.02431,16.81833 -10.89206,25.10926 -18.68782,28.78934 l -3.53553,-3.03045 c -22.4059,12.93708 -45.13914,4.90394 -54.54824,-5.55584 l -2.52538,5.55584" id="path3936" inkscape:connector-curvature="0" sodipodi:nodetypes="ccccccccc"/>
    <path style="fill:#550000;fill-opacity:1;stroke:none" d="m 273.75056,190.6875 c 0,0 2.55401,3.07923 6.0625,7.65625 0,0 -46.15946,15.49818 -43.04018,19.72768 14.8678,20.15958 32.91518,52.27232 32.91518,52.27232 -2.36048,0.73365 -4.00643,0.86874 -4.5,0.15625 -15.33253,-22.13329 -20.65208,-46.3932 -57.09375,-62.125 z" id="path3950" inkscape:connector-curvature="0" sodipodi:nodetypes="ccscscc"/>
    <path style="fill:#aa0000;fill-opacity:1;stroke:none" d="m 276.66487,135.52251 c 5.99815,-0.0168 13.2264,1.37516 18.30838,6.69223 3.40922,3.56693 3.37974,11.4817 1.51522,15.65737 -2.203,4.38672 -3.62608,4.37314 -3.64649,6.63146 -0.0346,3.82611 4.05126,8.98094 6.67695,12.56143 0,0 1.51523,6.56599 -9.09137,11.11168 -10.6066,4.54569 -70.74068,36.79522 -102.53048,22.22336 -35.60683,-16.32151 -93.944189,-37.88073 -105.560939,-45.45687 0,0 -1.3374,-3.02838 -1.01016,-4.54569 0.53241,-2.46862 4.24511,-3.55348 4.54569,-6.06091 0.30522,-2.54614 -3.85355,-4.64239 -3.03046,-7.07107 0.99202,-2.92712 4.25628,-3.03903 5.22408,-5.97425 1.67545,-5.08144 -4.46012,-7.47446 -3.70885,-13.21865 1.60618,-6.36922 6.67696,-9.08458 12.50561,-9.11277 l -0.76404,4.41697 c 0.0875,-0.16629 63.299579,12.04921 90.283839,26.41409 17.87869,9.5176 38.87372,15.31507 59.09392,14.14214 12.76799,-0.74064 36.03186,-13.18469 36.03186,-13.18469 z" id="path3119" inkscape:connector-curvature="0" sodipodi:nodetypes="cscscsscsssscccsacc"/>
    <path style="fill:#000000;fill-opacity:1;stroke:none" d="m 238.19699,121.82647 c -3.41806,-2.42997 -5.03202,-13.0092 -1.25,-14.82143 2.41259,-1.15604 6.0458,0.25448 7.5,2.5 1.8303,2.82627 6.13768,12.09824 2.85714,12.85714 -3.60862,0.83479 -5.91296,1.73509 -9.10714,-0.53571 z" id="path3142" inkscape:connector-curvature="0" sodipodi:nodetypes="sssss"/>
    <path sodipodi:nodetypes="sssss" inkscape:connector-curvature="0" id="path3144" d="m 224.19865,122.83448 c 2.56191,-3.32033 1.02391,-13.91087 -3.122,-14.54271 -2.64473,-0.40306 -5.70944,2.00471 -6.44639,4.57647 -0.92756,3.23688 -2.13622,11.08594 1.13861,11.86912 3.69529,0.88373 6.03568,1.19999 8.42978,-1.90288 z" style="fill:#000000;fill-opacity:1;stroke:none"/>
    <path style="fill:#ffffff;fill-opacity:1;stroke:none" d="m 161.88565,56.099234 c -2.24111,-8.266723 -8.81713,-16.374225 -15.65737,-19.697975 l 0,3.030458 C 138.39132,35.00333 129.24622,29.060335 116.17625,29.077653 l 0.50508,2.525381 C 99.879091,36.774044 82.776791,53.820221 83.851361,61.655073 l 2.52539,1.26269 c -3.29882,15.959904 5.72946,28.660445 12.6269,36.61803 l 2.020309,-3.535534 c 3.01842,6.289411 9.35448,9.565721 15.40482,9.343911 7.00387,-0.25676 16.67741,0.0863 18.43529,-6.818529 0.81379,-3.196506 2.50453,-6.271793 -1.26269,-10.101526 -6.81524,-3.371282 -13.49658,-4.510834 -18.18275,-11.869293 0.99955,-5.723206 8.08217,-18.148407 17.67767,-13.637059 l -0.75761,-3.282995 c 6.29483,2.56174 8.494,11.016242 16.41497,10.859139 7.78283,-0.154363 15.81391,-4.50194 13.13199,-14.394673 z" id="path3150" inkscape:connector-curvature="0" sodipodi:nodetypes="sccccccccssccccss"/>
    <path style="fill:#550000;fill-opacity:1;stroke:none" d="m 91.094311,136.375 c 4.509,5.05813 11.926969,9.27748 16.937499,11.53125 9.43309,4.24308 20.85722,2.28404 30.34375,6.40625 10.46539,4.54756 16.8928,9.30618 28.03125,19.65625 2.98556,2.77424 -8.36357,3.00645 -12.125,1.4375 -10.13201,-4.2262 -17.00287,-13.08984 -27.34375,-16.4375 -9.07566,-2.93806 -17.3515,-4.34028 -25,-7.15625 -3.568049,-1.31366 -6.948159,-4.00623 -11.364849,-4.77364 -1.27623,-0.22174 -1.94573,1.6089 -1.8539,2.64864 0.42447,4.80602 9.41815,4.27443 8.75,8.21875 -0.29374,1.73402 -2.37807,2.56349 -3.90625,3.375 -2.01493,1.06998 -3.05981,1.30044 -3.9375,3.40625 -0.58417,1.40158 -0.16604,2.98208 0.46875,4.34375 -3.37749,-1.6027 -6.08587,-3.00845 -7.75,-4.09375 0,0 -1.35849,-3.01394 -1.03125,-4.53125 0.53241,-2.46862 4.26192,-3.55507 4.5625,-6.0625 0.30522,-2.54614 -3.85434,-4.66507 -3.03125,-7.09375 0.99202,-2.92712 4.25095,-3.03353 5.21875,-5.96875 1.67545,-5.08144 -4.47002,-7.47456 -3.71875,-13.21875 5.83992,-3.95467 4.67084,5.98013 6.75,8.3125 z m 187.093749,3.9375 c 4.44481,0.10601 8.4097,1.98901 9.46875,3.65625 1.11509,1.75547 -1.52056,5.5019 -6.15625,6.78125 z m 19.25,14.5625 c -0.25635,1.12355 -0.56421,2.164 -0.9375,3 -2.203,4.38672 -3.63584,4.36668 -3.65625,6.625 -6.9954,1.92146 -8.91433,4.48512 -13.85977,11.56155 -3.55216,5.21598 -15.45316,10.57954 -14.01523,4.87595 2.04433,-8.10892 6.81022,-9.86696 13.9375,-15.375 5.36249,-4.14418 16.56933,-9.72133 18.53125,-10.6875 z" id="path3922" inkscape:connector-curvature="0" sodipodi:nodetypes="ssssssssssssccsssscscsccccccssc"/>
    <path style="fill:none;stroke:#000000;stroke-width:1;stroke-linecap:round;stroke-linejoin:round;stroke-miterlimit:4;stroke-opacity:1;stroke-dasharray:none;stroke-dashoffset:0" d="m 172.74479,318.48636 c 7.06746,-1.82305 13.80901,-1.03893 20.20305,2.52538 l -3.53554,3.03046 c 15.56695,4.81846 34.85868,16.36374 35.86042,22.72843 l -4.54569,2.0203 c 10.67152,10.10153 13.28306,20.20305 14.64722,30.30458 l -2.02031,0.50508 c -1.2319,4.75237 -1.95164,9.67545 -7.07107,13.13198" id="path3938" inkscape:connector-curvature="0" sodipodi:nodetypes="cccccccc"/>
    <path sodipodi:type="arc" style="fill:#000000;fill-opacity:1;stroke:none" id="path3146" sodipodi:cx="160.625" sodipodi:cy="132.80861" sodipodi:rx="5.8035712" sodipodi:ry="5.9821429" d="m 166.42857,132.80861 c 0,3.30385 -2.59835,5.98214 -5.80357,5.98214 -3.20522,0 -5.80357,-2.67829 -5.80357,-5.98214 0,-3.30385 2.59835,-5.98214 5.80357,-5.98214 3.20522,0 5.80357,2.67829 5.80357,5.98214 z" transform="matrix(-1,0,0,1,409.62556,0)"/>
  </g>
  <metadata>
    <rdf:RDF>
      <cc:Work>
        <dc:format>image/svg+xml</dc:format>
        <dc:type rdf:resource="http://purl.org/dc/dcmitype/StillImage"/>
        <cc:license rdf:resource="http://creativecommons.org/licenses/publicdomain/"/>
        <dc:publisher>
          <cc:Agent rdf:about="http://openclipart.org/">
            <dc:title>Open Clip Art Library</dc:title>
          </cc:Agent>
        </dc:publisher>
        <dc:title>bear with red scarf</dc:title>
        <dc:date>2011-05-22T16:27:03</dc:date>
        <dc:description/>
        <dc:source>http://openclipart.org/detail/140029/bear-with-red-scarf-by-tzunghaor</dc:source>
        <dc:creator>
          <cc:Agent>
            <dc:title>tzunghaor</dc:title>
          </cc:Agent>
        </dc:creator>
        <dc:subject>
          <rdf:Bag>
            <rdf:li>bear</rdf:li>
            <rdf:li>clip art</rdf:li>
            <rdf:li>clipart</rdf:li>
            <rdf:li>scarf</rdf:li>
            <rdf:li>teddy bear</rdf:li>
            <rdf:li>toy</rdf:li>
          </rdf:Bag>
        </dc:subject>
      </cc:Work>
      <cc:License rdf:about="http://creativecommons.org/licenses/publicdomain/">
        <cc:permits rdf:resource="http://creativecommons.org/ns#Reproduction"/>
        <cc:permits rdf:resource="http://creativecommons.org/ns#Distribution"/>
        <cc:permits rdf:resource="http://creativecommons.org/ns#DerivativeWorks"/>
      </cc:License>
    </rdf:RDF>
  </metadata>
</svg>
