<?xml version="1.0" encoding="UTF-8"?>
<svg viewBox="0 0 704.13495 959.34583" xmlns="http://www.w3.org/2000/svg" xmlns:xlink="http://www.w3.org/1999/xlink">
<defs>
<linearGradient id="svg_58" x1="2e-005" x2="1">
<stop offset="0" stop-color="#fcee2d"/>
<stop offset=".1595" stop-color="#f7ef6b"/>
<stop offset=".3558" stop-color="#f8fcff"/>
<stop offset=".5337" stop-color="#faf180"/>
<stop offset=".8282" stop-color="#ede80f"/>
<stop offset="1" stop-color="#d64a20"/>
</linearGradient>
<linearGradient id="svg_56" x1="-3e-005" x2="1.00002">
<stop offset=".8282" stop-color="#ede80f"/>
<stop offset="1" stop-color="#d64a20"/>
</linearGradient>
<linearGradient id="svg_54" x1=".06157" x2="1.10643" y1=".25357" y2=".67557">
<stop offset="0" stop-color="#fcee2d"/>
<stop offset=".1411" stop-color="#f8fcff"/>
<stop offset=".4049" stop-color="#faf180"/>
<stop offset=".8282" stop-color="#ede80f"/>
<stop offset="1" stop-color="#d64a20"/>
</linearGradient>
<linearGradient id="svg_52" x2="1">
<stop offset="0" stop-color="#fcee2d"/>
<stop offset=".4233" stop-color="#f7ef6b"/>
<stop offset=".7423" stop-color="#f8fcff"/>
<stop offset=".9387" stop-color="#faf180"/>
</linearGradient>
<linearGradient id="svg_50" x1="-1e-005" x2=".99998">
<stop offset=".7914" stop-color="#f0f9fe"/>
<stop offset="1" stop-color="#9b9da0"/>
</linearGradient>
<linearGradient id="svg_48" x1=".47036" x2=".61724" y1=".22203" y2=".82587">
<stop offset="0" stop-color="#fcee2d"/>
<stop offset=".1411" stop-color="#f8fcff"/>
<stop offset=".3497" stop-color="#faf180"/>
<stop offset=".8282" stop-color="#ede80f"/>
<stop offset="1" stop-color="#a13b22"/>
</linearGradient>
<linearGradient id="svg_46" x1=".00017" x2="1.00017">
<stop offset="0" stop-color="#fcee2d"/>
<stop offset=".1595" stop-color="#f7ef6b"/>
<stop offset=".3558" stop-color="#f8fcff"/>
<stop offset=".5337" stop-color="#faf180"/>
<stop offset=".8282" stop-color="#ede80f"/>
<stop offset="1" stop-color="#a13b22"/>
</linearGradient>
<linearGradient id="svg_44" x1="-4e-005" x2="1">
<stop offset="0" stop-color="#f8fcff"/>
<stop offset=".135" stop-color="#faf180"/>
<stop offset=".4417" stop-color="#ede80f"/>
</linearGradient>
<linearGradient id="svg_42" x1=".01006" x2=".8727" y1=".75659" y2="-.04204">
<stop offset="0" stop-color="#f7ef6b"/>
<stop offset=".319" stop-color="#faf180"/>
<stop offset=".8282" stop-color="#ede80f"/>
<stop offset="1" stop-color="#d64a20"/>
</linearGradient>
<linearGradient id="svg_40" x2="0" y1="1" y2="1e-005">
<stop offset=".4663" stop-color="#f0f9fe"/>
<stop offset="1" stop-color="#5f6062"/>
</linearGradient>
<linearGradient id="svg_38" x2=".99992">
<stop offset=".4663" stop-color="#d0722e"/>
<stop offset="1" stop-color="#a13b22"/>
</linearGradient>
<linearGradient id="svg_36" x1="-.00011" x2="1.00011">
<stop offset=".4663" stop-color="#d0722e"/>
<stop offset="1" stop-color="#a13b22"/>
</linearGradient>
<linearGradient id="svg_34" x2="1.00002">
<stop offset="0" stop-color="#fcee2d"/>
<stop offset=".1595" stop-color="#f7ef6b"/>
<stop offset=".3558" stop-color="#f8fcff"/>
<stop offset=".5337" stop-color="#faf180"/>
<stop offset=".8282" stop-color="#ede80f"/>
<stop offset="1" stop-color="#d64a20"/>
</linearGradient>
<linearGradient id="svg_32" x1="-2e-005" x2=".99999">
<stop offset="0" stop-color="#f8fcff"/>
<stop offset=".4172" stop-color="#faf285"/>
<stop offset=".8405" stop-color="#ede80f"/>
<stop offset="1" stop-color="#d64a20"/>
</linearGradient>
<linearGradient id="svg_30" x2="1">
<stop offset="0" stop-color="#f8fcff"/>
<stop offset="1" stop-color="#f8fcff"/>
</linearGradient>
<linearGradient id="svg_28" x1="-.00036" x2=".99982">
<stop offset="0" stop-color="#f8fcff"/>
<stop offset="1" stop-color="#f8fcff"/>
</linearGradient>
<linearGradient id="svg_24" x1=".2504" x2=".96647" y1="1.1343" y2=".3249">
<stop offset=".4663" stop-color="#f0f9fe"/>
<stop offset="1" stop-color="#5f6062"/>
</linearGradient>
<linearGradient id="svg_19" x2="1.00009">
<stop offset=".3497" stop-color="#d0722e"/>
<stop offset="1" stop-color="#a13b22"/>
</linearGradient>
<linearGradient id="svg_16" x2="1">
<stop offset=".7914" stop-color="#f0f9fe"/>
<stop offset="1" stop-color="#9b9da0"/>
</linearGradient>
<linearGradient id="svg_9" x1="-2e-005" x2="1.00003">
<stop offset="0" stop-color="#fcee2d"/>
<stop offset=".1595" stop-color="#f7ef6b"/>
<stop offset=".3558" stop-color="#f8fcff"/>
<stop offset=".5337" stop-color="#faf180"/>
<stop offset=".8282" stop-color="#ede80f"/>
<stop offset="1" stop-color="#d64a20"/>
</linearGradient>
<linearGradient id="svg_7" x1="-.00255" x2="1">
<stop offset="0" stop-color="#f8fcff"/>
<stop offset=".5337" stop-color="#faf180"/>
<stop offset=".8282" stop-color="#ede80f"/>
<stop offset="1" stop-color="#d64a20"/>
</linearGradient>
<symbol id="svg_63" xmlns:xlink="http://www.w3.org/1999/xlink">
<title>spring chicken</title>
<title>Layer 1</title>
<path d="m234.689,24.931c0,0 65.51801,31.897 87.069,114.655-12.069,10.345-34.483,23.276-34.483,23.276s-1.94101,6.804-4.608,9.138l4.66699-2.66701 15,10.33301c0,0-2.33398,4.66699-1.33398,6.66699-2.66602,2.33301-4.33301,2.66701-4.33301,2.66701s14.33301,11.33299 26.33301,12c-.66599,2.66701-1.33301,4.33299-1.33301,4.33299s13.33301-4.33299 16.33301-9.66598c.66699,3.33301 1.66699,7.33301 1.66699,7.33301s16.99899-8.33301 18.33301-25.33301c4,6.66701 19.66598,71-12,106.00002-8.66598,14-23.66699,38.33398-53,50.66699 0,8 2.66699,20 2.66699,20s17.66702-4.66602 28,0c-2,5.33301-12.99899,28.33301-6.33298,55 2.33298,3.66699 2.66599,5.66699 2.66599,5.66699s2.33301.33402 4,7c5.66699,6 11.33402,10.99899 12.33402,15.66602s2,13.66699 2,13.66699l2.66599,1 2.66699,7c0,0-15.99899,14-26.33298,16s-26,.33301-30-.66699-13.33402-4.33402-14.66702-6-1.66699-9.33301-1.66699-9.33301l1.33402-2.33301c0,0-.66803-4.33398.66599-7.33398-3.33301-1.66602-4-2.332-4.33301-3.66602s-.66699-8.00101 3-17.33398 7.33301-22.33402 7.33301-29-.33301-28.332-7.33301-34.66602c3.66702-3 10-5 10-5s2.33301-8.33398-1-21.33398c-5.33298,2-12,7-24,7s-13.99999.33398-13.99999.33398-10.66701-3-13.33301-5c-2,5.33301-4.33299,13.99899-4.66699,24.66602 7,3.33398 10.33299,3.33398 13.33299,2.66699-1,5-5,15.99899-6,23.33301s-1,17.00101 1.33299,23.33398 4.33301,14.33301 3.33301,19.33301-.666,7.66699-.666,7.66699-5,5-9.66701,6-24.66699,2.99899-31.66699,6.66602-22.666,14.66598-28.666,14.99997-36.33299.33398-42-12.66602c-1.667-8.66699-3.667-10-.667-12 1-7.66699 3-13.66699 6.667-15.66699s12-9.66699 16.33299-10 8.66701,2.66602 13.33402,2.33301 15-1.99899 18.33301-5.66602c2.33299-2.33398 1.334-4 4.66699-5 .33301-3 0-3.00098 5.33301-12.33398 2.33299-9.66602 3.334-17 2.66699-23.33301s-3.33299-13.66598 0-19.33301c4.33301,1 8.66701,4.66602 12,6.33301s10,1.66699 10,1.66699 6.33299-27.00098 4.33299-35.33398c-5.33299-2.33301-34.66701-17.66602-40.66701-37.33301-4.66699-17.33301-2.33299-58.66699 3.33301-78-4,3.66701-6.66701,4.33301-6.66701,4.33301l-.99899-3.66699c0,0 5.66701-14 8.66701-26.33299-4-2.33301-15.66701-8.66701-15-34.66701-6.33301-2.66701-21-9.66701-23-14.66701 2-8 9-23.33299 10.33299-35.66699 3.33299-4 5.66701-6 5.66701-6s34-52 62.33299-69c3.66701-.333 5,1 5,1s3.045-2.471 8.689-3.735z"/>
<path d="m166.33299,148.66701c0,0-9-9-12.33301-10.66699-1.33299-5-.66699-7.33301-.66699-7.33301s11.33299-14.667 19.33299-21.333 14.66701-11 18.33301-15c4.66699-1 9-1 13,0s13.66699,4.667 21.33299,6.333c8,3.333 30.666,14.667 33.00001,16s43,20.666 48.66699,22.33301c-3,2.33299-15.66602,12.33299-17.33301,15.33299s-.66699,5-.66699,5 24-13 29-20.33299c-2-7.66701-11.66699-25.33301-13.66699-35.00001-5.332-3.33301-27.332-13.33301-30.332-16.00001s-36.33299-29.666-45-32.333-22.33299-5-22.33299-5-23.33402,20.666-28.66701,25.666-16.33299,19.334-19,26.667-9,27.66701-11,29.33299-2.66701,3.33301-1.66701,5 15,10.00101 20,11.33402z" fill="url(#svg_58)"/>
<path d="m247.66701,37c0,0 21.33299,13.667 29.33299,25s22.99902,31 24.33301,36c-5-2-24.33398-9.667-32-17.667-1.66599-6.667-5.33301-14-12-24s-9.00001-17.333-9.666-19.333z" fill="url(#svg_56)"/>
<path d="m214,48.667c0,0 4.33299-10.667 10.33299-14.667 2-2.333 4.33301-5 6.66701-3.667s11,5.333 12.33299,8 8.33301,14.333 11,18 6.66701,14 6.66701,16c-3.66699-2-10.66701-4.667-16.66701-10.667-6.33299-5-5.66699-5.667-10.33299-7s-6.66701-4.333-11-4.333-7,.667-9-1.666z" fill="url(#svg_54)"/>
<path d="m180,70.667c0,0 22.33299-24 25.66701-27.667s13.33299-13 16-13c1.33299,2-9,15.667-10,17.333-2.66701,0-5.66701-.333-5.66701-.333s-22.33299,21-26,23.667z" fill="url(#svg_52)"/>
<path d="m174.33299,114c0,0 3.666,21.334-1.66701,33.66701-2.66599,6.66599-5.66599,18.66598 1.33402,25.33299s13.66701,13.66701 25.66701,16c2.33299,5.66701 4.33299,13.334 8.33299,16.66701 4.33299-4 11.66701-9.33299 13-12 3.66701-.66699 43.00101-8 54.66699-17.33299-1.66699-2-3.66699-3-3.66699-3s8.66598-5.33301 11.33301-11.66701 4.33398-14 2.33398-18.66699-6.33398-10.66701-7.66699-12.66701c-4.33301-2-21-9.667-29-14.333s-14-10.333-29.33299-12.667c-7.33301-2-11.33301-6-17.33301-6.333s-8-1.666-12.33299,1.667-12.66802,15.33299-15.66802,15.33299z" fill="url(#svg_50)"/>
<path d="m289,173.66701c0,0 3.99899,5.33301 7.33301,6.66701l1,3.33299c0,0-37.33301,25.66701-48.00001,35.66701-4-5-6.66699-10-12.33299-14.66701s-7.33299-7.33299-8-9c4.33299-.33299 12.33299-1.66699 20.66701-5.33299s11.99999-3.66701 16.99998-5.66701 18.66602-7 22.33301-11z" fill="url(#svg_48)"/>
<path d="m183.33299,188.33299c0,0-7.334,17-6.66701,20 .66701,1 2.66701.66699 6.66701-7s5.33299-10 7.33299-10.66701c-2.99898-.66599-7.33299-2.33299-7.33299-2.33299z" fill="url(#svg_46)"/>
<path d="m183,206c0,0 3-6.33299 4.33299-8.33299s3.33301-6 5.66701-5.66701 4.33299,0 7.33299,6 4.33301,8.33299 4.33301,8.33299l-2,3.66701 1.66699,1.66701 1,1.66699c0,0-2,16-1.66699,22.33301s2.66699,21.33299 3.66699,29.33299 7,24.00101 9.33299,29.33402 13.66701,25.66598 13.66701,27.66598 7.66699,9.33402 7.66699,9.33402-3.66699,1.99899-6.66699.66599-15.33299-7.33402-17.33299-10-6-8.66598-11-36.33301-6.33299-47.66699-5.33299-60.99999c-1.66701,7.33299-2.33301,10-2.33301,10s.666,7.99899.666,15.33299 2.66701,25.668 4,32.33402 9,35.66598 9,37.33298c-4.66701-2-13.66701-10.66598-21.33299-15.33298-4.66701-4.33402-7-6.33402-12.33301-20.66702 .33301-9.33298 1.33301-7.33398 1.33301-16.66699s-1.66701-19.33299.33299-26 6.66701-30.33299 4.33299-31c.66701-2.33299 1.66701-4 1.66701-4z" fill="url(#svg_44)"/>
<path d="m209.33299,209.33299c0,0-4,21.33299-2,33.66699 1.33299,5 1.66699,8.33301 2.66699,9-.33299,5.66701 1.66701,25.666 11.33301,42.00001 1,4 6.33299,13 10,16 1,3.66699 1.33299,11.66598 10,20 2.33299.33398 4.33299,1 4.33299,1s2.33301-2.66602 7.66701-3.66602c2.66699-3 8.334-5.66599 12.334-7s21.66602-14.33398 27.33301-23.66699c4.66699-6.33301 8.33402-9.00101 13.66699-15.66699s13-15.66702 14-20 5.99899-15.00001 7.66602-19.33301 4.66599-7 5-13.66701 3-23.33299 3.66699-27c-3,1.33301-4.66699,8-12,6.66701-1,5-3,5.66699-3,10-1.33301,3.33299-2,4.66699-2,4.66699s-.66699-8.66699 1.33301-12.66699l-.33301-1.66699-8,9.66701 7,24.66699c0,0-14.00101,3.66701-32.66699-.33299-3.66602,3-7,7-7,7s-13-12-18-16c-.66602-3.33301-1-5.66701-1-5.66701s11.668,12.666 17.33398,17.666c4.33301-4 25.66598-30 34.66598-36.66701l2.66702-.33299 2.33301-3-2.33301-4.33299c0,0-13.00101,1-21.66699-10.33299-5.66602,4-35.66602,24.33299-45.00001,33.66699-6-5-12.66699-14-16.66699-18s-4.666-7.00101-5.666-9.00101c-1.33299-.66701-5,.33299-17.66701,12.33299z" fill="url(#svg_42)"/>
<path d="m338.66699,209c0,0 10.99899-6.66701 18.66598-20.66701 1.33402,7 4,18.33301 3,34.33301-1.66599,9.33299-2.99899,12.99899-4.66599,21.33299s-1.33402,13.33301-6.33402,22-5,12.66699-14,26.66699-21.33298,28.66702-31.33298,31.33402c-4,2.33402-8.33402,7.33402-10.66699,6.66699l-1-11.33298c0,0-3.332-3.00101-4.66602-2.33402s-7.33298,5.33301-10,6c-.33398,3.66699 2.66602,9.33402 2.33301,12.33402-5.33301,3.66599-29.66701,9-51,3l-.33299-3c0,0 4,1 10.66699.33298s13.66701-5.66699 18.33299-7.66699 8-2.99899 12.33301-5.66599 10.00101-8.33402 15.66699-13.33402 11.33301-13.66598 11.33301-13.66598 9.66699-8.33398 13.66699-13.66699 14.66702-22.66699 17-28 11.33402-31.66702 11-44.66702z" fill="url(#svg_40)"/>
<path d="m280,324.66699c0,0 4.66699-2.33402 6-3.66699s3.66699,0 3.66699,0 0,23.33298 3,33c-.33398,1.66699-9.66699,4.66699-9.66699,4.66699s3-9.33298-3-34z" fill="url(#svg_38)"/>
<path d="m227.33299,333c0,0-5.33301,19.668-5.33301,32.33402-3.33299.33298-8.33299-.33402-8.33299-.33402s4.66699-2.66699 6.33299-35c3.00001,1 7.33301,3 7.33301,3z" fill="url(#svg_36)"/>
<path d="m277.33301,367.33402c0,0 21.66602-13.33301 41-10-1,5.66699-3.66599,11.33301-4.33301,15s-2.99899,26-1.33298,32 3.99899,8 4.66599,10c-4.66599,2-10.332,2.00101-13.66598-.33301-4.33402-.66699-5.66602-.33301-7,1 2,.66602 3.33398.33402 5,2 4,1.66602 11.66598,2.33402 16.66598,1 2.66699,3.33301 4,6 4,6s-3.33301-2.66599-5.33301-3-8.66699.66602-13-.66699c-3.66699,1-6.66599,2.66699-8.33298,1 2.33298,3 3.332,2.33301 9.66598,3s8.66699.00098 12.66699,1.66699 7.33301,3.33301 7.33301,3.33301-1.332.00101.33398,3.66699 7.99899,9.66602 8.66602,13.33301 0,8.66699 0,8.66699-15,8.99899-19,8.66602c-3,2-8.66602,2.33298-13.66602,2s-8.33398-.33301-8.33398-.33301-7-3.66699-8.33301-6c-3.66699-.33301-6.33301,1.66599-8-1.66699s-3-18.33402 10-29c-4.66699,1.66699-12.00101,8.66699-13.66699,17.66699-2-.33301-4.66702-.99899-3-8.33301s2.33298-6.33301 4-11 3.668-13.00101 5.33398-15.33398c1.66602-7.00003 4.99899-36.33301-2.33398-44.33301z" fill="url(#svg_34)"/>
<path d="m194,360.33402c0,0 5.66701,6.33301 13,8s21,2.33301 24.66701,5c-.66701,4.66699-.33301,10-2,16s-1.666,18.33398-1.33301,21.66699 7.666,12 4.33301,22l1,1.66602c0,0-3.66701,2.33398-10,3.66699s-13.33301,1.33398-18.33301,3.66699-17,7.99899-20.33299,9.66602-14.66701,8-21.66701,7.66699-28-4-36-13c0-5.33301 2-11.66699 7.33301-16s12-6.66699 12-6.66699 12,4.00101 16,8.33398c3.33299,3.66602 5,3.33301 5,3.33301s-5.66701-6.33402-7.33402-8.66702c4.33299-.66602 12.66699-3.33402 17-7 1.66699-1.66602 7.33299-3.33301 12,1.66699 1.66699.33301.33299-3.33301.33299-3.33301s-5.66699-1.00098-7-2.33398c1.33301-2 1.334-4 11.66701-1.33301 2,1.33301 2,3.33301 2,3.33301s3.33299-2.33301 1-4.33301-8.66701-1.33301-10-3.33301-.33301-5 1.66699-8 4.66701-15.66699 3.66701-24.66699-.99999-14.33298 1.33301-16.99997z" fill="url(#svg_32)"/>
<path d="m221.33299,331.33402c0,0-2.33301,28.332-5.33301,32.66602h2l5-32.33301-1.66699-.33301z" fill="url(#svg_30)"/>
<path d="m281.33402,325c0,0 5.332,19.00101 3.66599,31.33402l1.66702-1-2.33301-32-3,1.66599z" fill="url(#svg_28)"/>
<path d="m308.66699,217.33299c0,0 5.66599,17.66699 8.66598,23-4.33298,1.33299-22.66699,1.66699-27-2.66701 4.66702-6.33299 12.66803-16.33299 18.33402-20.33299z" fill="url(#svg_24)"/>
<path d="m196,143.66701c0,0 6-2.66699 9.33299-3.66699l.33301-1.66701c0,0 12.334-9.666 22.66699,9.66699l1.33299,1.66701c0,0-22,23.33299-23.33299,24-2.33299-3-11.33299-20.33402-11.33299-20.33402s-2-4.66599 1-9.66598z"/>
<path d="m199,147.66701c0,0 15.66701-12.66699 22.33299-2.33299l3.33301,2.33299 2,1.33301c0,0-15.666,11-20.33301,17.33299-2-3.00001-6-10.99901-7.33299-18.666z" fill="url(#svg_19)"/>
<path d="m206.5,144.5c0,0-3.5,4-1.5,15-4-6-6.5-12.5 1.5-15z" fill="url(#svg_16)"/>
<path d="m230.333,123a4.5,6.667 0 1,0 -9,0 4.5,6.667 0 1,0 9,0"/>
<path d="m206.666,124.667a3.833,6.333 0 1,0 -7.666,0 3.833,6.333 0 1,0 7.666,0"/>
<path d="m275.25,462.5c0,0-.75,3.5 1.25,5.5s10.25,4 10.25,4 15-.25 19,.5 25.5-4.25 34.25-13.25c.25-2 0-4.25 0-4.25s-15.25,8-17,9.5c-3.75.25-8.25,3.25-12.75,3.25s-18,.5-21-.75-11.75-1.5-14-4.5z" fill="url(#svg_9)"/>
<path d="m127,449c0,0 6.75,6.75 16.5,8s16,5.75 26.75,1 19.25-9 25.75-11 14-2.5 19.5-3.75 15-4.75 17.75-6.5c1.5,1.5 1.5,4.5-1.75,5.5s-6.25,2.5-9.75,3-11.25,1.75-15,3-7.75,2.25-14.25,5.5-19.75,12.75-23.75,13-13,.75-16.75.25-15.5-2.25-23.5-9.25c-2.25-3.75-2.5-6-1.5-8.75z" fill="url(#svg_7)"/>
<path d="m230.5,276.25c0,0 15.75-2.25 33.5-18.5 3,2 3.5,2.75 5.5,9s4.25,8 5.25,9.25c.75,3.25.25,8.5-.5,10.75s-9,12.5-12.75,13l-3.75.5c0,0 2-.5 3-2.5 2.75-1.75 11-6.75 12-11.25s1.5-7.75 1.5-7.75-5.75-4-7.25-13.25c-1.75-2-4-3.5-4-3.5s-16.75,12.75-27.75,15.75c2.75,5.25 9.5,11.75 10.25,15.25 3,2.75 7,5.5 9.25,5.5-3.5.75-5.5.5-11.75-2.75l-2-.5c0,0 .25-2.75-1.75-5.25s-7.5-9-8.75-13.75z"/>
<path d="m204.375,260.25a2.125,4 0 1,0 -4.25,0 2.125,4 0 1,0 4.25,0" transform="matrix(.9761,-.2174,.2174,.9761,-51.7343,50.1854)"/>
<path d="m211.5,288.125a2.875,5.625 0 1,0 -5.75,0 2.875,5.625 0 1,0 5.75,0" transform="matrix(.9906,-.1369,.1369,.9906,-37.4746,31.2682)"/>
<path d="m219,310.625a3,5.124 0 1,0 -6,0 3,5.124 0 1,0 6,0" transform="matrix(.9614,-.2751,.2751,.9614,-77.11,71.3962)"/>
</symbol>
</defs>
<title>Layer 1</title>
<path d="m138.92795,48.98169c.18324,27.47913-1.65103,50.33319-4.09668,51.0421s-4.57626-20.99586-4.75848-48.47529 1.65103-50.33319 4.09668-51.0421 4.57625,20.99587 4.75848,48.47528z" fill="#00a2ff" fill-rule="evenodd" stroke="#000" stroke-width="9.08913"/>
<path d="m703.51013,789.5705c0,93.44-156.23908,169.27533-348.74802,169.27533s-348.748-75.83533-348.748-169.27533 156.23912-169.27533 348.748-169.27533 348.74802,75.83539 348.74802,169.27533z" fill="#008000" fill-rule="evenodd" stroke="#000"/>
<path d="m104.25714,281.48029c.18325,27.47913-1.65103,50.33319-4.09668,51.04211s-4.57625-20.99588-4.75848-48.47528 1.65104-50.33319 4.09669-51.0421 4.57625,20.99586 4.75847,48.47527z" fill="#00a2ff" fill-rule="evenodd" stroke="#000" stroke-width="9.08913"/>
<path d="m353.07144,59.179c.18326,27.47912-1.65103,50.33319-4.09668,51.0421s-4.57626-20.99586-4.75848-48.47529 1.65103-50.33318 4.09668-51.0421 4.57626,20.99587 4.75848,48.47529z" fill="#00a2ff" fill-rule="evenodd" stroke="#000" stroke-width="9.08913"/>
<path d="m279.65085,218.257c.18326,27.47913-1.65103,50.33318-4.09668,51.0421s-4.57626-20.99586-4.75848-48.4753 1.65103-50.33318 4.09668-51.04208 4.57626,20.99586 4.75848,48.47528z" fill="#00a2ff" fill-rule="evenodd" stroke="#000" stroke-width="9.08913"/>
<path d="m175.63825,397.72961c.18326,27.47913-1.65103,50.33319-4.09668,51.04208s-4.57625-20.99585-4.75848-48.47528 1.65105-50.33319 4.0967-51.04211 4.57625,20.99588 4.75847,48.47531z" fill="#00a2ff" fill-rule="evenodd" stroke="#000" stroke-width="9.08913"/>
<path d="m506.03104,224.3754c.18326,27.47913-1.65103,50.33319-4.09668,51.04211s-4.57623-20.99588-4.75848-48.4753 1.65106-50.33319 4.09671-51.0421 4.57623,20.99586 4.75845,48.47528z" fill="#00a2ff" fill-rule="evenodd" stroke="#000" stroke-width="9.08913"/>
<path d="m47.15215,516.01837c.18325,27.47913-1.65104,50.33319-4.09668,51.04211s-4.57625-20.99585-4.75848-48.47528 1.65104-50.33319 4.09668-51.04208 4.57625,20.99585 4.75847,48.47525z" fill="#00a2ff" fill-rule="evenodd" stroke="#000" stroke-width="9.08913"/>
<path d="m622.28033,148.91531c.18329,27.47913-1.651,50.33319-4.09668,51.0421s-4.57623-20.99586-4.75848-48.4753 1.65106-50.33318 4.09668-51.04209 4.57629,20.99586 4.75848,48.47529z" fill="#00a2ff" fill-rule="evenodd" stroke="#000" stroke-width="9.08913"/>
<path d="m397.5907,809.96545c0,58.54071-199.54091,104.01257-289.60353,104.01257s-18.35515-65.86646-93.81523-116.24933c-48.68614-32.50659 41.89468-169.70355 126.44662-138.68347 77.82585,28.55249 256.97214,92.37952 256.97214,150.92023z" fill="#00a2ff" fill-rule="evenodd" stroke="#000"/>
<use transform="matrix(1.30138,0,0,1.18235,423.81774,-632.94565)" x="-174.89842" xlink:href="#svg_63" y="727.47542"/>
<g transform="matrix(.72269,0,0,.66074,256.5343,269.3183)">
<g transform="matrix(1.02269,0,0,1.03324,-46.04045,-151.1443)">
<path d="m56.18143,554.41858c0,296.74347-7.70624,537.57874-17.20138,537.57874s-1.91125-227.67011-1.91125-524.41357-160.48503-2.19421-181.57012-10.97095c-8.9265-3.7157 200.68276-298.93762 200.68276-2.19421z" fill="#0f0" stroke="#000" stroke-width="7.52118"/>
<path d="m-218.70851,567.58191c4.55211-14.40247 15.67625-29.94055 29.58971-36.41284s32.74892-10.62695 49.4129-6.09399 30.47714,18.05701 38.42007,30.47473 7.8829,30.47681 3.33078,44.87927-3.99438,44.84277-17.90787,51.31519c-6.9567,3.23621-12.90752-28.46228-20.43909-30.78369s-31.32834,21.0929-39.66032,18.82642-10.84097-32.79114-16.69666-34.15662c-9.01148-2.1012-35.97667,21.05469-39.94814,14.84583-7.94293-12.41773 9.34653-38.49194 13.89862-52.89429z" fill="#aa00d4" stroke="#000" stroke-width="1.85199"/>
<path d="m57.29911,900.2038c0,106.42261-7.55505,192.7945-16.86395,192.7945s-1.87378-81.65045-1.87378-188.07306-157.33699-.78687-178.00849-3.93457c-8.7514-1.33252 196.74622-107.20953 196.74622-.78687z" fill="#0f0" stroke="#000" stroke-width="4.45975"/>
<path d="m-193.03764,886.08563c8.06236-7.23169 20.53232-12.89246 31.36026-12.05249s23.79117,4.79248 32.23993,13.30505 11.85889,21.53662 12.11228,31.86169c.25342,10.32495-6.42718,21.33911-14.48954,28.57092s-18.92317,26.02417-29.7511,25.18408c-5.41397-.41992 2.63564-21.83972-1.08261-25.85376s-26.77934,2.09216-31.00372-2.16406 5.48286-23.7727 2.4303-26.625c-4.69766-4.38953-29.58719.4668-29.7139-4.69568-.25342-10.32507 19.83577-20.29907 27.8981-27.53076z" fill="#800080" stroke="#000" stroke-width="1.30659"/>
<path d="m106.48606,550.755c0,87.81116-58.96494,281.44574-60.16416,216.18298-.13876-7.31628 52.00626-148.76648 52.00626-236.57752s133.3511,101.70252 127.46639,106.052c-11.0376,8.15784-119.30849-173.46851-119.30849-85.65747z" fill="#0f0" stroke="#000" stroke-width="3.74518"/>
<path d="m188.63654,700.65356c-5.26843-12.05017-6.96344-28.45007-1.71179-40.35901s14.98145-24.97266 28.25781-31.08215 29.836-4.69128 41.99768-.79553 22.39368,15.91516 27.66211,27.96521 22.93854,31.9491 17.68689,43.85803c-2.62579,5.95447-24.47388-11.82861-30.62939-9.24829-6.15472,2.57996-8.11725,31.14197-14.75543,34.19666s-25.60895-15.83252-30.1449-13.53467c-6.98047,3.53613-11.12323,33.66003-17.2041,31.71204-12.16162-3.89575-15.89044-30.66223-21.15887-42.71228z" fill="#d42aff" stroke="#000" stroke-width="1.59024"/>
<path d="m105.88151,930.21661c-18.54498,25.4895-42.46192,39.7262-53.38599,31.77832s-4.73895-35.08545 13.80607-60.57495 50.61978-82.55475 61.54382-74.60693-3.41888,77.91406-21.9639,103.40356z" fill="#0f0" stroke="#000" stroke-width="3.74518"/>
<path d="m71.67515,511.12161c-9.90564,9.94333-22.68061,15.49692-28.5156,12.39645s-2.53125-13.68655 7.37436-23.62985 27.03806-32.20416 32.87302-29.10376-1.82617,30.39386-11.73178,40.33716z" fill="#0f0" stroke="#000" stroke-width="1.70956"/>
<path d="m13.01227,710.27832c-13.88089-2.31299-38.84415-58.47644-36.71619-71.24683s30.54529,22.66419 44.42618,24.97717 23.41953,14.55469 21.29156,27.32507-15.12064,21.25757-29.00156,18.94458z" fill="#0f0" stroke="#000" stroke-width="3.74518"/>
</g>
<path d="m-17.00189,909.27942c10.48798,35.05249 11.5596,65.72717 2.392,68.47021s-23.08044-21.43982-33.56842-56.49231-64.58559-114.67432-55.418-117.41724 76.10645,70.38672 86.59443,105.43933z" fill="#0f0" stroke="#000" stroke-width="3.74518"/>
<path d="m20.43613,921.46558c0,30.39612-8.22311,55.06555-18.35516,55.06555s-14.27622-22.62988-14.27622-53.026 61.24912-63.22339 71.38113-63.22339-38.74976,30.78772-38.74976,61.18384z" fill="#0f0" stroke="#000" stroke-width="3.74518"/>
</g>
</svg>
